HIERARCHY
ROOT Pelvis
{
	OFFSET 0.000000 0.000000 0.000000
	CHANNELS 6 Xposition Yposition Zposition Xrotation Yrotation Zrotation
	JOINT LeftUpLeg_virtual
	{
		OFFSET 0.000000 0.000000 0.000000
		CHANNELS 3 Xrotation Yrotation Zrotation
		JOINT LeftUpLeg
		{
			OFFSET 8.479700 -4.795502 -0.379100
			CHANNELS 3 Xrotation Yrotation Zrotation
			JOINT LeftLeg
			{
				OFFSET 0.024144 -32.555107 0.112900
				CHANNELS 3 Xrotation Yrotation Zrotation
				JOINT LeftFoot
				{
					OFFSET -0.024144 -32.638630 -3.012600
					CHANNELS 3 Xrotation Yrotation Zrotation
					JOINT LeftToeBase
					{
						OFFSET 0.970200 -13.225400 11.864200
						CHANNELS 3 Xrotation Yrotation Zrotation
						End Site
						{
							OFFSET 0 0 0
						}
					}
				}
			}
		}
	}
	JOINT RightUpLeg_virtual
	{
		OFFSET 0.000000 0.000000 0.000000
		CHANNELS 3 Xrotation Yrotation Zrotation
		JOINT RightUpLeg
		{
			OFFSET -8.479700 -4.795502 -0.379100
			CHANNELS 3 Xrotation Yrotation Zrotation
			JOINT RightLeg
			{
				OFFSET -0.023144 -32.555092 0.112900
				CHANNELS 3 Xrotation Yrotation Zrotation
				JOINT RightFoot
				{
					OFFSET 0.023144 -32.638641 -3.012700
					CHANNELS 3 Xrotation Yrotation Zrotation
					JOINT RightToeBase
					{
						OFFSET -0.970200 -13.225400 11.864200
						CHANNELS 3 Xrotation Yrotation Zrotation
						End Site
						{
							OFFSET 0 0 0
						}
					}
				}
			}
		}
	}
	JOINT Hips_virtual
	{
		OFFSET 0.000000 0.000000 0.000000
		CHANNELS 3 Xrotation Yrotation Zrotation
		JOINT Hips
		{
			OFFSET -0.000000 -0.000000 -0.000000
			CHANNELS 3 Xrotation Yrotation Zrotation
			JOINT Spine
			{
				OFFSET 0.000000 7.722000 1.166200
				CHANNELS 3 Xrotation Yrotation Zrotation
				JOINT Spine1
				{
					OFFSET 0.000000 12.024101 0.248800
					CHANNELS 3 Xrotation Yrotation Zrotation
					JOINT Spine2
					{
						OFFSET 0.000000 11.502998 -0.491200
						CHANNELS 3 Xrotation Yrotation Zrotation
						JOINT Neck_virtual
						{
							OFFSET 0.000000 0.000000 0.000000
							CHANNELS 3 Xrotation Yrotation Zrotation
							JOINT Neck
							{
								OFFSET 0.000000 18.430702 -3.123100
								CHANNELS 3 Xrotation Yrotation Zrotation
								JOINT Head
								{
									OFFSET 0.000000 9.051102 1.034000
									CHANNELS 3 Xrotation Yrotation Zrotation
									End Site
									{
										OFFSET 0 0 0
									}
								}
							}
						}
						JOINT LeftShoulder_virtual
						{
							OFFSET 0.000000 0.000000 0.000000
							CHANNELS 3 Xrotation Yrotation Zrotation
							JOINT LeftShoulder
							{
								OFFSET 6.197800 13.665199 -4.064700
								CHANNELS 3 Xrotation Yrotation Zrotation
								JOINT LeftArm
								{
									OFFSET 7.778100 -0.187103 -1.709300
									CHANNELS 3 Xrotation Yrotation Zrotation
									JOINT LeftForeArm
									{
										OFFSET 22.049376 0.000000 0.000000
										CHANNELS 3 Xrotation Yrotation Zrotation
										JOINT LeftHand
										{
											OFFSET 23.009392 0.000000 0.000000
											CHANNELS 3 Xrotation Yrotation Zrotation
											End Site
											{
												OFFSET 0 0 0
											}
										}
									}
								}
							}
						}
						JOINT RightShoulder_virtual
						{
							OFFSET 0.000000 0.000000 0.000000
							CHANNELS 3 Xrotation Yrotation Zrotation
							JOINT RightShoulder
							{
								OFFSET -6.197800 13.665199 -4.064700
								CHANNELS 3 Xrotation Yrotation Zrotation
								JOINT RightArm
								{
									OFFSET -7.778100 -0.187103 -1.709300
									CHANNELS 3 Xrotation Yrotation Zrotation
									JOINT RightForeArm
									{
										OFFSET -22.049376 0.000000 0.000000
										CHANNELS 3 Xrotation Yrotation Zrotation
										JOINT RightHand
										{
											OFFSET -23.009392 0.000000 0.000000
											CHANNELS 3 Xrotation Yrotation Zrotation
											End Site
											{
												OFFSET 0 0 0
											}
										}
									}
								}
							}
						}
					}
				}
			}
		}
	}
}
MOTION
Frames: 11
Frame Time: 0.03333333
-0.698877 78.018028 35.172089 0.000000 0.000000 0.000000 10.279960 -5.190718 0.075155 -31.618715 5.861108 15.000419 36.057832 8.662197 0.403965 -13.568520 -3.632256 -13.329539 0.000000 0.000000 0.000000 10.279960 -5.190718 0.075155 -35.530388 -2.733218 -5.206420 37.803014 1.148725 -4.286232 -11.362698 -11.776984 9.107381 0.000000 0.000000 0.000000 10.279960 -5.190718 0.075155 0.000000 0.000000 0.000000 5.319875 0.142619 -1.218323 2.188028 -0.566218 -0.158979 0.000000 0.000000 0.000000 0.272737 -0.972616 0.898067 12.585920 -0.308785 2.188553 0.000000 0.000000 0.000000 0.272737 -0.972616 0.898067 5.876925 -7.979695 20.002223 -34.254669 -16.965584 -14.997634 180.000005 -55.552476 -180.000005 0.000000 0.000000 0.000000 0.272737 -0.972616 0.898067 -1.569642 -8.377662 -14.965271 -29.516113 36.059922 26.253335 -180.000005 58.643615 180.000005 0.000000 0.000000 0.000000 
-0.744161 78.591805 35.515232 0.000000 0.000000 0.000000 10.556043 -5.011429 0.076927 -30.193463 6.277535 14.763432 33.072309 8.671736 0.400353 -12.369487 -3.817337 -13.132248 0.000000 0.000000 0.000000 10.556043 -5.011429 0.076927 -34.064844 -2.858524 -5.119375 35.071228 0.933171 -4.265676 -10.356056 -11.701139 9.156654 0.000000 0.000000 0.000000 10.556043 -5.011429 0.076927 0.000001 0.000000 0.000000 5.189667 0.137591 -1.198623 1.911444 -0.569145 -0.186931 0.000000 0.000000 0.000000 -0.161185 -0.970424 0.868122 12.453095 -0.296589 2.274847 0.000000 0.000000 0.000000 -0.161185 -0.970424 0.868122 5.875347 -8.055282 20.055956 -34.142562 -16.790062 -15.375131 -180.000005 -55.539909 180.000005 0.000000 0.000000 0.000000 -0.161185 -0.970424 0.868122 -1.577467 -8.399917 -14.977688 -29.040810 36.106347 26.125868 -180.000005 58.674453 180.000005 0.000000 0.000000 0.000000 
-0.787415 79.104248 35.817482 0.000000 0.000000 0.000000 10.795024 -4.820908 0.071527 -28.822889 6.665762 14.535896 30.190922 8.679310 0.396417 -11.179526 -4.015820 -12.943751 0.000000 0.000000 0.000000 10.795024 -4.820908 0.071527 -32.667518 -2.975413 -5.034495 32.465071 0.709012 -4.245269 -9.370378 -11.625539 9.196108 0.000000 0.000000 0.000000 10.795024 -4.820908 0.071527 0.000000 0.000000 0.000000 5.077613 0.133664 -1.173889 1.666089 -0.571977 -0.208916 0.000000 0.000000 0.000000 -0.559321 -0.968292 0.843850 12.301278 -0.295255 2.357714 0.000000 0.000000 0.000000 -0.559321 -0.968292 0.843850 5.878849 -8.060531 20.101156 -33.982213 -16.856640 -15.686663 180.000005 -55.612404 -180.000005 0.000000 0.000000 0.000000 -0.559321 -0.968292 0.843850 -1.587337 -8.450120 -14.986748 -28.633697 36.187725 26.024547 -180.000005 58.852803 -180.000005 0.000000 0.000000 0.000000 
-0.826907 79.548172 36.073769 0.000000 0.000000 0.000000 10.969572 -4.631724 0.065478 -27.512601 7.026498 14.318295 27.486356 8.683891 0.392119 -10.035691 -4.217213 -12.767894 0.000000 0.000000 0.000000 10.969572 -4.631724 0.065478 -31.355042 -3.084805 -4.963108 30.062412 0.497347 -4.224952 -8.441900 -11.552878 9.222251 0.000000 0.000000 0.000000 10.969572 -4.631724 0.065478 0.000000 0.000000 0.000000 4.985447 0.130446 -1.145368 1.454995 -0.575849 -0.227307 0.000000 0.000000 0.000000 -0.918377 -0.967313 0.822786 12.149652 -0.303947 2.434268 0.000000 0.000000 0.000000 -0.918377 -0.967313 0.822786 5.881371 -7.946040 20.121317 -33.764384 -17.243359 -15.928117 -180.000005 -55.769079 -180.000005 0.000000 0.000000 0.000000 -0.918377 -0.967313 0.822786 -1.601074 -8.534191 -15.002519 -28.345521 36.296885 26.002365 -180.000005 59.171172 180.000005 0.000000 0.000000 0.000000 
-0.861480 79.922859 36.281235 0.000000 0.000000 0.000000 11.065000 -4.454266 0.061973 -26.272418 7.359089 14.113018 25.013662 8.685255 0.387431 -8.966842 -4.412983 -12.606916 0.000000 0.000000 0.000000 11.065000 -4.454266 0.061973 -30.141297 -3.187422 -4.910107 27.915635 0.312226 -4.204533 -7.595644 -11.485380 9.235014 0.000000 0.000000 0.000000 11.065000 -4.454266 0.061973 0.000001 0.000000 0.000000 4.914369 0.127679 -1.114307 1.280397 -0.581400 -0.243914 0.000000 0.000000 0.000000 -1.235875 -0.968074 0.803034 12.017597 -0.320258 2.501739 0.000000 0.000000 0.000000 -1.235875 -0.968074 0.803034 5.878252 -7.672476 20.103033 -33.468750 -17.978129 -16.110615 180.000005 -55.968131 180.000005 0.000000 0.000000 0.000000 -1.235875 -0.968074 0.803034 -1.619841 -8.648573 -15.036400 -28.202447 36.406862 26.123047 180.000005 59.564536 -180.000005 0.000000 0.000000 0.000000 
-0.890717 80.232498 36.438683 0.000000 0.000000 0.000000 11.082928 -4.295718 0.061231 -25.119482 7.661049 13.923940 22.807480 8.684687 0.382469 -7.991267 -4.597174 -12.460985 0.000000 0.000000 0.000000 11.082928 -4.295718 0.061231 -29.040745 -3.282802 -4.874493 26.049073 0.159762 -4.183867 -6.843033 -11.424514 9.236962 0.000000 0.000000 0.000000 11.082928 -4.295718 0.061231 0.000001 0.000000 0.000000 4.864763 0.125169 -1.081809 1.142952 -0.588909 -0.259644 0.000000 0.000000 0.000000 -1.510937 -0.970843 0.783633 11.919770 -0.340864 2.558037 0.000000 0.000000 0.000000 -1.510937 -0.970843 0.783633 5.867389 -7.218339 20.037594 -33.068194 -19.029749 -16.254288 180.000005 -56.130235 -180.000005 0.000000 0.000000 0.000000 -1.510937 -0.970843 0.783633 -1.643548 -8.779114 -15.096000 -28.192612 36.469891 26.439377 180.000005 59.918839 -180.000005 0.000000 0.000000 0.000000 
-0.914858 80.483017 36.545647 0.000000 0.000000 0.000000 11.039379 -4.159515 0.060779 -24.082199 7.927012 13.757284 20.892292 8.683587 0.377612 -7.120976 -4.765607 -12.331644 0.000000 0.000000 0.000000 11.039379 -4.159515 0.060779 -28.071770 -3.368990 -4.850315 24.467585 0.038160 -4.163130 -6.185780 -11.370780 9.229908 0.000000 0.000000 0.000000 11.039379 -4.159515 0.060779 -0.000001 0.000000 0.000000 4.835595 0.122981 -1.047682 1.041134 -0.598518 -0.274372 0.000000 0.000000 0.000000 -1.744795 -0.975783 0.764702 11.863109 -0.362431 2.602118 0.000000 0.000000 0.000000 -1.744795 -0.975783 0.764702 5.849452 -6.585280 19.920838 -32.533537 -20.318829 -16.382502 180.000005 -56.159601 180.000005 0.000000 0.000000 0.000000 -1.744795 -0.975783 0.764702 -1.670309 -8.903711 -15.179141 -28.256423 36.425156 26.965479 -180.000005 60.098739 180.000005 0.000000 0.000000 0.000000 
-0.934956 80.680374 36.601383 0.000000 0.000000 0.000000 10.958824 -4.045124 0.058149 -23.196707 8.150104 13.619071 19.286945 8.683600 0.373022 -6.363505 -4.916527 -12.219316 0.000000 0.000000 0.000000 10.958824 -4.045124 0.058149 -27.257733 -3.442067 -4.831441 23.168767 -0.059780 -4.142196 -5.621495 -11.324389 9.216051 0.000000 0.000000 0.000000 10.958824 -4.045124 0.058149 0.000000 0.000000 0.000000 4.824592 0.121158 -1.011529 0.971215 -0.610312 -0.287051 0.000000 0.000000 0.000000 -1.940917 -0.983055 0.747314 11.846411 -0.382438 2.634065 0.000000 0.000000 0.000000 -1.940917 -0.983055 0.747314 5.827514 -5.800944 19.751483 -31.837923 -21.742099 -16.519113 180.000005 -55.976955 180.000005 0.000000 0.000000 0.000000 -1.940917 -0.983055 0.747314 -1.696163 -8.997876 -15.269690 -28.286504 36.216579 27.654777 -180.000005 59.988261 -180.000005 0.000000 0.000000 0.000000 
-0.952959 80.829659 36.604202 0.000000 0.000000 0.000000 10.866326 -3.948388 0.054004 -22.498778 8.324115 13.511674 18.005471 8.685800 0.368857 -5.722562 -5.050437 -12.123200 0.000000 0.000000 0.000000 10.866326 -3.948388 0.054004 -26.623780 -3.496893 -4.814586 22.151062 -0.144332 -4.122234 -5.147421 -11.285386 9.197311 0.000000 0.000000 0.000000 10.866326 -3.948388 0.054004 0.000001 0.000000 0.000000 4.828421 0.119284 -0.974836 0.927518 -0.624166 -0.296080 0.000000 0.000000 0.000000 -2.104699 -0.992649 0.733138 11.862736 -0.399619 2.654987 0.000000 0.000000 0.000000 -2.104699 -0.992649 0.733138 5.806719 -4.919174 19.528563 -30.961866 -23.198196 -16.689332 180.000005 -55.554635 -180.000005 0.000000 0.000000 0.000000 -2.104699 -0.992649 0.733138 -1.715441 -9.041383 -15.338110 -28.143765 35.816402 28.399035 -180.000005 59.530740 180.000005 0.000000 0.000000 0.000000 
-0.970558 80.933403 36.551567 0.000000 0.000000 0.000000 10.780865 -3.863421 0.049332 -22.026655 8.441755 13.437911 17.077131 8.689312 0.365079 -5.208692 -5.168354 -12.043190 0.000000 0.000000 0.000000 10.780865 -3.863421 0.049332 -26.195623 -3.528366 -4.799465 21.424780 -0.226006 -4.102666 -4.766375 -11.253898 9.173278 0.000000 0.000000 0.000000 10.780865 -3.863421 0.049332 -0.000001 0.000000 0.000000 4.843016 0.117341 -0.938320 0.903146 -0.639440 -0.299837 0.000000 0.000000 0.000000 -2.242798 -1.004037 0.723880 11.902894 -0.413914 2.666981 0.000000 0.000000 0.000000 -2.242798 -1.004037 0.723880 5.794021 -4.017053 19.248241 -29.898371 -24.604148 -16.921437 180.000005 -54.941024 -180.000005 0.000000 0.000000 0.000000 -2.242798 -1.004037 0.723880 -1.722033 -9.023207 -15.348991 -27.687604 35.242396 29.054143 -180.000005 58.752932 180.000005 0.000000 0.000000 0.000000 
-0.988791 80.993492 36.441246 0.000000 0.000000 0.000000 10.712160 -3.784237 0.045249 -21.804921 8.498569 13.398475 16.523604 8.692663 0.361576 -4.829582 -5.272495 -11.976560 0.000000 0.000000 0.000000 10.712160 -3.784237 0.045249 -25.988235 -3.533437 -4.787578 20.998377 -0.312815 -4.083190 -4.480993 -11.230154 9.144954 0.000000 0.000000 0.000000 10.712160 -3.784237 0.045249 -0.000001 0.000000 0.000000 4.864100 0.115686 -0.902514 0.890606 -0.654733 -0.297253 0.000000 0.000000 0.000000 -2.362433 -1.015907 0.720725 11.958706 -0.426060 2.673404 0.000000 0.000000 0.000000 -2.362433 -1.015907 0.720725 5.797813 -3.187908 18.901189 -28.656455 -25.897875 -17.247382 180.000005 -54.262226 180.000005 0.000000 0.000000 0.000000 -2.362433 -1.015907 0.720725 -1.711356 -8.942822 -15.274873 -26.810226 34.558408 29.485551 -180.000005 57.763750 180.000005 0.000000 0.000000 0.000000 
